<svg width="431" height="65" viewBox="0 0 431 65" fill="none" xmlns="http://www.w3.org/2000/svg">
<path d="M31.1157 64.2904C13.4574 64.2904 -0.000666015 51.0895 -0.000666015 33.6883C-0.000666015 16.2871 13.4574 3.08621 31.1157 3.08621C45.9453 3.08621 57.7747 12.4297 61.1178 25.5449H50.317C47.2311 18.0015 39.9449 12.944 31.1157 12.944C19.4578 12.944 10.5429 21.8589 10.5429 33.6883C10.5429 45.5177 19.4578 54.4325 31.1157 54.4325C39.9449 54.4325 47.2311 49.3751 50.317 41.8317H61.1178C57.7747 54.9469 45.9453 64.2904 31.1157 64.2904ZM87.2678 64.2904C73.8954 64.2904 63.8662 54.4325 63.8662 41.4031C63.8662 28.3736 73.8954 18.5158 87.2678 18.5158C100.554 18.5158 110.669 28.3736 110.669 41.4031C110.669 54.4325 100.554 64.2904 87.2678 64.2904ZM87.2678 55.0326C94.9826 55.0326 100.726 49.1179 100.726 41.4031C100.726 33.6883 94.9826 27.7736 87.2678 27.7736C79.5529 27.7736 73.724 33.6883 73.724 41.4031C73.724 49.1179 79.5529 55.0326 87.2678 55.0326ZM145.235 54.0039H147.635V63.2617H144.635C138.12 63.2617 132.291 61.1187 127.576 57.347C124.319 59.7472 120.719 61.8045 116.861 63.2617L113.175 55.5469C116.176 54.2611 118.919 52.5467 121.404 50.5751C116.69 43.7175 114.033 34.5455 114.033 24.0876C114.033 8.82945 120.462 0.514601 130.319 0.514601C139.663 0.514601 145.749 8.14369 145.749 21.1731C145.749 31.8882 141.72 42.346 134.777 50.4894C137.777 52.7181 141.292 54.0039 145.235 54.0039ZM130.062 9.77237C126.376 9.77237 123.89 14.1441 123.89 23.4019C123.89 31.031 125.519 37.8886 128.519 43.2032C133.234 36.8599 135.891 29.1451 135.891 21.1731C135.891 13.8869 133.662 9.77237 130.062 9.77237ZM180.983 54.0039H183.383V63.2617H180.383C173.868 63.2617 168.039 61.1187 163.324 57.347C160.067 59.7472 156.467 61.8045 152.609 63.2617L148.923 55.5469C151.923 54.2611 154.667 52.5467 157.152 50.5751C152.438 43.7175 149.78 34.5455 149.78 24.0876C149.78 8.82945 156.209 0.514601 166.067 0.514601C175.411 0.514601 181.497 8.14369 181.497 21.1731C181.497 31.8882 177.468 42.346 170.525 50.4894C173.525 52.7181 177.039 54.0039 180.983 54.0039ZM165.81 9.77237C162.124 9.77237 159.638 14.1441 159.638 23.4019C159.638 31.031 161.267 37.8886 164.267 43.2032C168.982 36.8599 171.639 29.1451 171.639 21.1731C171.639 13.8869 169.41 9.77237 165.81 9.77237ZM230.468 41.4888C230.468 42.4317 230.382 44.0604 230.211 45.0891H194.037C195.408 51.4323 200.637 55.6326 207.495 55.6326C212.552 55.6326 216.924 53.3182 219.153 49.9751H229.782C226.268 58.5471 217.696 64.2904 207.323 64.2904C193.78 64.2904 183.75 54.4325 183.75 41.4031C183.75 28.3736 193.78 18.5158 207.066 18.5158C220.439 18.5158 230.468 28.3736 230.468 41.4888ZM207.066 27.1736C200.723 27.1736 195.751 31.2024 194.123 37.2028H220.096C218.553 31.2024 213.41 27.1736 207.066 27.1736ZM256.21 64.2904C242.838 64.2904 232.808 54.4325 232.808 41.4031C232.808 28.3736 242.838 18.5158 256.21 18.5158C267.611 18.5158 276.611 25.7163 278.926 36.0027H268.725C266.668 31.1167 261.953 27.7736 256.21 27.7736C248.495 27.7736 242.666 33.6883 242.666 41.4031C242.666 49.1179 248.495 55.0326 256.21 55.0326C261.953 55.0326 266.668 51.6895 268.725 46.8035H278.926C276.611 57.0899 267.611 64.2904 256.21 64.2904ZM307.047 28.2879H296.246V48.2607C296.246 52.1181 298.646 54.4325 302.675 54.4325H307.047V63.2617H301.303C291.789 63.2617 286.645 58.4614 286.645 49.8037V28.2879H279.273V19.5445H283.731C285.96 19.5445 287.16 18.3444 287.16 16.1157V7.71509H296.246V19.5445H307.047V28.2879ZM317.375 12.1725C313.946 12.1725 311.289 9.51521 311.289 6.08641C311.289 2.57189 313.946 0.000281628 317.375 0.000281628C320.889 0.000281628 323.547 2.57189 323.547 6.08641C323.547 9.51521 320.889 12.1725 317.375 12.1725ZM312.574 63.2617V19.5445H322.175V63.2617H312.574ZM368.037 19.5445C369.066 24.5162 368.037 30.5166 364.951 37.8028L354.065 63.2617H344.036L325.434 19.5445H336.407L349.179 51.5181L355.694 35.7456C358.179 29.3166 359.122 24.0876 358.179 19.5445H368.037ZM416.072 41.4888C416.072 42.4317 415.986 44.0604 415.815 45.0891H379.641C381.012 51.4323 386.241 55.6326 393.099 55.6326C398.156 55.6326 402.528 53.3182 404.757 49.9751H415.386C411.872 58.5471 403.3 64.2904 392.928 64.2904C379.384 64.2904 369.355 54.4325 369.355 41.4031C369.355 28.3736 379.384 18.5158 392.67 18.5158C406.043 18.5158 416.072 28.3736 416.072 41.4888ZM392.67 27.1736C386.327 27.1736 381.355 31.2024 379.727 37.2028H405.7C404.157 31.2024 399.014 27.1736 392.67 27.1736ZM424.031 63.9475C420.173 63.9475 417.173 61.033 417.173 57.1756C417.173 53.3182 420.173 50.318 424.031 50.318C427.974 50.318 430.888 53.3182 430.888 57.1756C430.888 61.033 427.974 63.9475 424.031 63.9475Z" fill="white"/>
</svg>
